<svg 
 xmlns="http://www.w3.org/2000/svg"
 xmlns:xlink="http://www.w3.org/1999/xlink"
 width="864px" height="867px">
<path fill-rule="evenodd"  stroke="rgb(255, 255, 255)" stroke-width="9px" stroke-linecap="round" stroke-linejoin="bevel" fill="rgb(0, 0, 0)"
 d="M688.234,108.151 C710.108,125.399 730.016,145.606 747.869,169.182 C847.483,300.725 892.284,554.649 726.332,724.664 C553.517,901.708 280.493,855.630 148.656,739.186 C132.717,725.107 117.297,708.403 103.583,689.945 C5.667,558.147 -38.084,297.869 138.991,128.917 C306.964,-31.351 556.096,3.964 688.234,108.151 Z"/>
<path fill-rule="evenodd"  stroke="rgb(255, 255, 255)" stroke-width="5px" stroke-linecap="round" stroke-linejoin="bevel" fill="rgb(0, 0, 0)"
 d="M32.854,767.802 C312.783,529.937 493.519,320.741 528.619,285.625 C527.237,287.008 532.376,280.775 532.729,276.038 C532.915,273.531 533.450,270.196 529.990,265.080 C527.033,260.707 519.987,254.270 517.664,250.013 C516.973,248.746 516.490,247.390 516.295,245.904 C527.230,235.025 516.364,245.980 527.253,234.948 C528.996,234.948 530.339,235.645 531.362,236.318 C535.223,238.858 541.849,245.775 546.427,248.646 C552.229,252.283 560.009,252.664 569.712,250.017 L749.150,76.082 C749.609,75.629 750.063,75.175 750.520,74.713 C751.520,73.702 752.498,72.531 753.260,71.973 C756.903,69.305 763.093,70.940 768.326,73.344 C774.366,76.120 779.247,81.002 782.022,87.042 C785.462,94.531 785.146,99.342 783.390,102.108 C782.684,103.220 781.748,104.125 780.651,104.847 L779.281,106.217 L606.690,287.001 C603.462,296.160 603.189,303.649 606.688,308.915 C616.153,318.546 614.850,317.050 616.275,318.504 C618.495,320.768 620.447,327.197 619.014,329.461 C610.824,337.598 619.039,329.401 610.795,337.678 C607.396,338.604 603.237,337.665 599.838,334.938 C590.386,325.402 599.896,335.031 590.251,325.350 C585.493,322.564 579.085,322.097 576.555,322.610 C575.038,322.917 573.164,323.742 571.076,325.349 C567.412,328.168 564.556,332.037 562.857,336.305 C561.747,339.094 561.850,341.612 560.117,344.523 C557.230,349.373 552.543,351.192 549.159,352.740 C544.483,354.881 539.935,357.640 535.462,360.957 C573.857,325.127 227.934,655.570 135.493,736.217 C132.541,738.793 107.168,756.377 97.140,760.869 C81.931,767.682 38.356,772.283 34.224,771.911 L30.115,770.541 L32.854,767.802 Z"/>
<path fill-rule="evenodd"  stroke="rgb(255, 255, 255)" stroke-width="0px" stroke-linecap="round" stroke-linejoin="bevel" fill="rgb(255, 255, 255)"
 d="M738.190,117.171 L735.452,103.474 L749.148,106.215 L751.887,119.912 L738.190,117.171 ZM714.905,124.018 L728.602,126.758 L731.340,140.455 L717.644,137.715 L714.905,124.018 ZM694.359,144.561 L708.055,147.302 L710.794,160.999 L697.097,158.258 L694.359,144.561 ZM673.812,165.105 L687.509,167.845 L690.247,181.542 L676.551,178.802 L673.812,165.105 ZM653.266,185.649 L666.962,188.389 L669.701,202.086 L656.004,199.345 L653.266,185.649 ZM631.350,207.562 L645.046,210.302 L647.784,223.999 L634.088,221.258 L631.350,207.562 ZM610.803,228.105 L624.500,230.845 L627.238,244.542 L613.542,241.802 L610.803,228.105 ZM592.996,245.910 L606.693,248.650 L609.431,262.347 L595.735,259.606 L592.996,245.910 Z"/>
<path fill-rule="evenodd"  stroke="rgb(0, 0, 0)" stroke-width="0px" stroke-linecap="round" stroke-linejoin="bevel" fill="rgb(255, 255, 255)"
 d="M562.858,317.130 C558.130,317.418 553.558,318.319 549.162,319.868 C544.709,321.438 539.466,324.512 538.204,325.346 C509.203,344.526 178.429,680.120 125.906,718.411 C114.477,726.744 88.007,742.629 79.835,744.104 L58.968,760.955 C94.465,757.899 126.844,732.338 134.124,726.630 C190.758,682.222 507.977,368.452 525.875,354.108 C527.134,353.099 530.853,350.368 534.093,348.630 C536.729,347.217 540.100,345.806 543.681,344.522 C545.051,344.031 546.398,343.582 547.790,343.153 L562.858,317.130 Z"/>
<path fill-rule="evenodd"  stroke="rgb(0, 0, 0)" stroke-width="9px" stroke-linecap="round" stroke-linejoin="bevel" fill="rgb(255, 255, 255)"
 d="M428.457,490.277 C418.762,582.771 409.140,675.675 399.445,768.168 C407.801,770.330 416.301,771.747 424.901,772.413 C432.438,772.996 439.988,772.996 447.528,772.414 L476.695,495.684 L428.457,490.277 Z"/>
<path fill-rule="evenodd"  stroke="rgb(0, 0, 0)" stroke-width="9px" stroke-linecap="round" stroke-linejoin="bevel" fill="rgb(255, 255, 255)"
 d="M198.403,190.961 L402.602,395.190 L368.358,429.429 L201.137,262.184 C197.573,266.578 193.833,271.257 190.179,275.880 C185.826,281.385 182.491,285.868 179.220,292.315 C176.987,296.715 175.162,301.286 173.740,306.011 L332.744,465.038 L161.160,631.680 C142.150,604.992 121.731,569.501 110.719,538.850 C97.378,501.717 91.086,466.451 90.182,433.384 C89.423,405.654 93.572,376.751 99.775,349.835 L143.601,393.668 C140.847,409.939 139.916,426.425 140.859,442.976 C141.850,460.383 145.836,481.458 153.181,504.611 C157.630,518.634 163.111,532.336 169.614,545.703 L255.909,459.420 L113.474,316.964 C122.424,296.507 132.938,276.854 144.981,258.071 C159.767,235.011 176.701,213.506 195.663,193.700 L198.403,190.961 Z"/>
<path fill-rule="evenodd"  stroke="rgb(0, 0, 0)" stroke-width="9px" stroke-linecap="round" stroke-linejoin="bevel" fill="rgb(255, 255, 255)"
 d="M662.820,655.445 L462.863,455.459 L428.619,489.698 L591.597,652.700 C587.203,656.264 582.523,660.003 577.900,663.657 C572.394,668.009 567.910,671.343 561.463,674.613 C557.063,676.845 552.492,678.670 547.766,680.091 L393.005,525.307 L223.154,695.134 C246.610,711.902 230.179,698.956 266.981,725.270 C308.196,683.934 266.858,725.599 308.074,684.182 L394.369,597.900 L536.805,740.355 C557.263,731.408 576.918,720.898 595.702,708.857 C618.765,694.074 640.271,677.143 660.080,658.184 L662.820,655.445 Z"/>
<path fill-rule="evenodd"  stroke="rgb(0, 0, 0)" stroke-width="9px" stroke-linecap="round" stroke-linejoin="bevel" fill="rgb(255, 255, 255)"
 d="M561.495,233.580 C553.130,229.441 543.668,224.658 538.211,221.252 C536.176,219.981 531.754,217.142 525.885,217.142 C521.573,217.141 517.408,218.620 513.557,221.250 L499.860,234.946 C497.723,242.651 498.184,250.841 501.228,258.230 C504.007,264.977 508.792,270.698 514.923,274.667 L483.421,276.034 L484.788,313.016 L412.190,385.603 L208.125,181.508 C257.612,139.070 317.745,111.686 382.078,103.449 C468.974,92.324 555.896,117.046 625.874,169.211 L561.495,233.580 ZM336.875,162.342 C332.232,163.998 327.713,165.806 323.178,167.819 C317.301,170.428 312.267,173.047 306.741,176.036 C299.759,179.814 292.501,183.433 284.825,186.992 L412.195,314.380 L440.960,285.619 L439.592,265.074 L336.875,162.342 ZM486.169,155.504 C456.513,148.816 425.912,147.924 395.771,152.758 L473.836,230.835 L494.381,232.206 L547.802,178.793 C528.381,168.186 507.702,160.360 486.169,155.504 Z"/>
<path fill-rule="evenodd"  stroke="rgb(0, 0, 0)" stroke-width="9px" stroke-linecap="round" stroke-linejoin="bevel" fill="rgb(255, 255, 255)"
 d="M757.341,456.850 L708.037,407.538 C704.300,373.094 694.065,339.762 677.911,308.920 L612.395,374.427 L729.945,492.459 L716.245,547.245 L577.760,409.057 L512.170,474.638 L477.930,440.394 L540.940,377.394 C546.443,374.820 551.820,372.128 557.376,369.177 C561.732,366.863 564.722,365.099 566.964,362.329 C571.465,356.769 571.175,347.291 576.553,344.524 C578.792,343.373 581.572,343.447 584.771,344.525 C587.932,347.897 591.623,350.674 595.728,352.744 C602.065,355.939 609.135,357.318 616.273,356.854 C619.200,355.282 621.944,353.453 624.491,351.376 C627.378,349.022 629.841,346.522 631.340,344.528 C633.827,341.220 635.837,337.232 636.819,333.571 C640.057,321.509 632.055,306.399 621.756,296.589 L687.504,230.850 C726.594,280.660 751.087,339.610 757.345,402.063 C761.254,441.077 757.341,456.850 757.341,456.850 Z"/>
<path fill-rule="evenodd"  stroke="rgb(255, 255, 255)" stroke-width="12px" stroke-linecap="round" stroke-linejoin="bevel" fill="rgb(0, 0, 0)"
 d="M708.051,210.306 C819.679,351.856 808.907,554.863 686.102,681.470 C559.017,812.491 334.790,816.724 190.147,698.857 L142.767,746.230 C315.430,896.879 580.045,888.580 734.037,729.412 C880.540,577.985 891.926,332.908 754.623,163.741 L708.051,210.306 Z"/>
<path fill-rule="evenodd"  stroke="rgb(255, 255, 255)" stroke-width="12px" stroke-linecap="round" stroke-linejoin="bevel" fill="rgb(0, 0, 0)"
 d="M145.603,648.649 C37.112,502.122 51.595,291.097 182.102,169.179 C308.238,51.344 505.855,42.010 645.050,150.037 L692.992,102.102 C527.637,-32.170 286.954,-22.931 134.167,121.237 C-22.054,268.645 -34.990,523.870 97.516,696.729 L145.603,648.649 Z"/>
</svg>